<svg xmlns="http://www.w3.org/2000/svg" viewBox="0 0 120 120" width="120" height="120" fill="none"><g transform="translate(120,120) scale(-1,-1)"><path d="M 2 76 V 2 H 76" stroke="#6b86ff" stroke-width="1.1" stroke-opacity="0.6"/><path d="M 10 66 V 10 H 66" stroke="#aebfff" stroke-width="0.7" stroke-opacity="0.5"/><path d="M 2 2 L 30 30" stroke="#6b86ff" stroke-width="0.8" stroke-opacity="0.45"/><path d="M 2 2 L 16 16" stroke="#aebfff" stroke-width="0.6" stroke-opacity="0.5"/><path d="M 48 27 L 69 48 L 48 69 L 27 48 Z" stroke="#6b86ff" stroke-width="1.2" stroke-opacity="0.92"/><path d="M 48 35.5 L 60.5 48 L 48 60.5 L 35.5 48 Z" stroke="#aebfff" stroke-width="0.8" stroke-opacity="0.9"/><path d="M 48 43.4 L 52.6 48 L 48 52.6 L 43.4 48 Z" fill="#6b86ff" fill-opacity="0.85"/><g stroke="#aebfff" stroke-width="0.7" stroke-linecap="round"><line x1="48" y1="33" x2="48" y2="17"/><line x1="63" y1="48" x2="79" y2="48"/><line x1="48" y1="63" x2="48" y2="79"/><line x1="33" y1="48" x2="17" y2="48"/></g><g stroke="#6b86ff" stroke-width="1" stroke-opacity="0.75" stroke-linecap="round">
       <line x1="90" y1="2" x2="90" y2="11"/><line x1="104" y1="2" x2="104" y2="7"/>
       <line x1="2" y1="90" x2="11" y2="90"/><line x1="2" y1="104" x2="7" y2="104"/>
     </g></g></svg>
